<svg>
        <symbol id="logo" width="305" height="68" viewBox="0 0 305 68" fill="currentColor" xmlns="http://www.w3.org/2000/svg">
            <path d="M15.2013 52.1585C13.8925 52.1585 12.8938 51.8059 12.2049 51.1007C11.5161 50.3955 11.1717 49.3881 11.1717 48.0785V33.4711L12.8249 37.9541L0.632849 21.08C0.150678 20.3748 -0.0559663 19.6192 0.0129153 18.8133C0.0817968 17.9738 0.426205 17.2518 1.04614 16.6474C1.66607 16.0429 2.54431 15.7407 3.68086 15.7407C4.50744 15.7407 5.24791 15.9422 5.90229 16.3452C6.5911 16.7481 7.24548 17.3862 7.86541 18.2592L16.1312 29.8948H14.478L22.7438 18.2592C23.3982 17.3526 24.0354 16.7146 24.6553 16.3452C25.3097 15.9422 26.0674 15.7407 26.9284 15.7407C28.0305 15.7407 28.8915 16.0262 29.5114 16.597C30.1314 17.1343 30.4586 17.8227 30.493 18.6622C30.5274 19.4681 30.2347 20.3076 29.6148 21.1807L17.5777 37.9541L19.1792 33.4711V48.0785C19.1792 50.7985 17.8532 52.1585 15.2013 52.1585Z"/>
            <path d="M42.2665 52.2592C39.5457 52.2592 37.1693 51.7388 35.1373 50.6978C33.1397 49.6568 31.5899 48.1625 30.4877 46.2148C29.3856 44.2671 28.8346 41.9669 28.8346 39.3141C28.8346 37.3328 29.1446 35.5531 29.7645 33.9748C30.3844 32.3965 31.2799 31.0533 32.4509 29.9452C33.6563 28.8034 35.0856 27.9471 36.7388 27.3763C38.3919 26.7718 40.2345 26.4696 42.2665 26.4696C44.9873 26.4696 47.3465 26.9901 49.3441 28.0311C51.3761 29.0721 52.9431 30.5496 54.0452 32.4637C55.1818 34.3778 55.7501 36.6612 55.7501 39.3141C55.7501 41.3289 55.4229 43.1254 54.7685 44.7037C54.1486 46.282 53.2531 47.642 52.0821 48.7837C50.9111 49.9254 49.4818 50.7985 47.7942 51.403C46.1411 51.9738 44.2985 52.2592 42.2665 52.2592ZM42.2665 46.5674C43.403 46.5674 44.3846 46.2987 45.2112 45.7615C46.0378 45.2242 46.6921 44.435 47.1743 43.3941C47.6565 42.3195 47.8976 40.9595 47.8976 39.3141C47.8976 36.8627 47.3809 35.0662 46.3477 33.9244C45.3145 32.7491 43.9541 32.1615 42.2665 32.1615C41.1644 32.1615 40.1828 32.4133 39.3218 32.917C38.4952 33.4207 37.8409 34.2099 37.3587 35.2844C36.911 36.3254 36.6871 37.6686 36.6871 39.3141C36.6871 41.7654 37.2037 43.5955 38.2369 44.8044C39.2701 45.9797 40.6133 46.5674 42.2665 46.5674Z"/>
            <path d="M69.8467 52.2592C67.7114 52.2592 65.9377 51.8731 64.5256 51.1007C63.1135 50.3284 62.0631 49.1699 61.3743 47.6252C60.7199 46.0469 60.3927 44.0992 60.3927 41.7822V30.3985C60.3927 29.1225 60.7199 28.1654 61.3743 27.5274C62.0631 26.8894 63.0274 26.5704 64.2673 26.5704C65.5072 26.5704 66.4715 26.8894 67.1603 27.5274C67.8491 28.1654 68.1935 29.1225 68.1935 30.3985V41.9837C68.1935 43.4612 68.5035 44.5694 69.1234 45.3081C69.7434 46.0133 70.7249 46.3659 72.0681 46.3659C73.5491 46.3659 74.7545 45.8622 75.6844 44.8548C76.6487 43.8138 77.1309 42.4538 77.1309 40.7748V30.3985C77.1309 29.1225 77.4581 28.1654 78.1125 27.5274C78.8013 26.8894 79.7656 26.5704 81.0055 26.5704C82.2798 26.5704 83.2441 26.8894 83.8985 27.5274C84.5873 28.1654 84.9317 29.1225 84.9317 30.3985V48.28C84.9317 50.8657 83.6747 52.1585 81.1605 52.1585C79.9206 52.1585 78.9735 51.8227 78.3191 51.1511C77.6647 50.4795 77.3376 49.5225 77.3376 48.28V44.9052L78.1125 46.8696C77.3548 48.5822 76.2699 49.9086 74.8578 50.8489C73.4457 51.7891 71.7754 52.2592 69.8467 52.2592Z"/>
            <path d="M94.9976 52.1585C93.6889 52.1585 92.6901 51.8227 92.0013 51.1511C91.3124 50.4795 90.968 49.5225 90.968 48.28V30.3985C90.968 29.156 91.2952 28.2158 91.9496 27.5778C92.6384 26.9062 93.5855 26.5704 94.791 26.5704C96.0308 26.5704 96.9779 26.9062 97.6323 27.5778C98.2867 28.2158 98.6139 29.156 98.6139 30.3985V33.0178H98.0973C98.5106 31.0029 99.4232 29.4415 100.835 28.3333C102.247 27.2252 104.073 26.6039 106.311 26.4696C107.172 26.4025 107.827 26.6207 108.275 27.1244C108.757 27.5946 109.015 28.3837 109.049 29.4918C109.118 30.5328 108.894 31.3555 108.378 31.96C107.896 32.5644 107.069 32.9338 105.898 33.0681L104.71 33.1689C102.747 33.3368 101.283 33.8908 100.319 34.8311C99.3888 35.7713 98.9239 37.1313 98.9239 38.9111V48.28C98.9239 49.5225 98.5794 50.4795 97.8906 51.1511C97.2363 51.8227 96.2719 52.1585 94.9976 52.1585Z"/>
            <path d="M116.649 52.1585C115.478 52.1585 114.583 51.8395 113.963 51.2015C113.343 50.5634 113.033 49.6736 113.033 48.5318V19.3674C113.033 18.2257 113.36 17.3358 114.015 16.6978C114.703 16.0597 115.633 15.7407 116.804 15.7407C117.837 15.7407 118.647 15.9422 119.232 16.3452C119.852 16.7146 120.421 17.3694 120.937 18.3096L132.871 39.5659H131.114L143.048 18.3096C143.565 17.3694 144.116 16.7146 144.701 16.3452C145.321 15.9422 146.131 15.7407 147.129 15.7407C148.3 15.7407 149.196 16.0597 149.816 16.6978C150.47 17.3358 150.797 18.2257 150.797 19.3674V48.5318C150.797 49.6736 150.487 50.5634 149.867 51.2015C149.247 51.8395 148.352 52.1585 147.181 52.1585C146.01 52.1585 145.097 51.8395 144.443 51.2015C143.823 50.5634 143.513 49.6736 143.513 48.5318V28.1318H144.65L135.041 44.9052C134.627 45.5432 134.18 46.0301 133.697 46.3659C133.25 46.6681 132.647 46.8192 131.889 46.8192C131.132 46.8192 130.512 46.6513 130.03 46.3155C129.547 45.9797 129.117 45.5096 128.738 44.9052L119.026 28.0815H120.266V48.5318C120.266 49.6736 119.956 50.5634 119.336 51.2015C118.75 51.8395 117.855 52.1585 116.649 52.1585Z"/>
            <path d="M170.686 52.2592C167.689 52.2592 165.106 51.7388 162.936 50.6978C160.801 49.6232 159.148 48.1289 157.977 46.2148C156.84 44.2671 156.272 41.9837 156.272 39.3644C156.272 36.8123 156.823 34.5792 157.925 32.6652C159.027 30.7175 160.56 29.2064 162.523 28.1318C164.521 27.0237 166.777 26.4696 169.291 26.4696C171.116 26.4696 172.769 26.7718 174.25 27.3763C175.731 27.9471 177.006 28.7867 178.073 29.8948C179.141 30.9694 179.95 32.2958 180.501 33.8741C181.052 35.4187 181.328 37.1481 181.328 39.0622C181.328 39.7002 181.121 40.1871 180.708 40.5229C180.295 40.8252 179.692 40.9763 178.9 40.9763H162.678V37.0474H175.697L174.87 37.7526C174.87 36.3758 174.664 35.2341 174.25 34.3274C173.837 33.3871 173.234 32.682 172.442 32.2118C171.684 31.7417 170.737 31.5066 169.601 31.5066C168.326 31.5066 167.242 31.7921 166.346 32.3629C165.451 32.9338 164.762 33.7565 164.28 34.8311C163.797 35.9057 163.556 37.1985 163.556 38.7096V39.1126C163.556 41.6647 164.159 43.5452 165.365 44.7541C166.604 45.9629 168.43 46.5674 170.841 46.5674C171.667 46.5674 172.614 46.4666 173.682 46.2652C174.75 46.0637 175.748 45.7447 176.678 45.3081C177.47 44.9387 178.176 44.8212 178.796 44.9555C179.416 45.0563 179.899 45.3249 180.243 45.7615C180.587 46.198 180.777 46.7017 180.811 47.2726C180.88 47.8434 180.76 48.4143 180.45 48.9852C180.14 49.5225 179.623 49.9758 178.9 50.3452C177.729 50.9832 176.403 51.4533 174.922 51.7555C173.475 52.0913 172.063 52.2592 170.686 52.2592Z"/>
            <path d="M194.441 52.2592C192.581 52.2592 190.911 51.9067 189.43 51.2015C187.949 50.4963 186.795 49.5392 185.968 48.3304C185.142 47.1215 184.729 45.7615 184.729 44.2504C184.729 42.437 185.211 41.0099 186.175 39.9689C187.139 38.8943 188.706 38.1387 190.876 37.7022C193.046 37.2321 195.922 36.997 199.504 36.997H202.242V40.9259H199.555C197.799 40.9259 196.37 41.0266 195.267 41.2281C194.2 41.396 193.425 41.6983 192.943 42.1348C192.495 42.5713 192.271 43.1758 192.271 43.9481C192.271 44.8884 192.598 45.6607 193.253 46.2652C193.941 46.8696 194.923 47.1718 196.197 47.1718C197.196 47.1718 198.074 46.9536 198.832 46.517C199.624 46.0469 200.244 45.4257 200.692 44.6533C201.14 43.8474 201.363 42.9407 201.363 41.9333V36.1407C201.363 34.6632 201.019 33.6222 200.33 33.0178C199.641 32.3797 198.47 32.0607 196.817 32.0607C195.887 32.0607 194.871 32.1783 193.769 32.4133C192.702 32.6148 191.513 32.9674 190.205 33.4711C189.447 33.8069 188.775 33.8908 188.19 33.7229C187.604 33.5215 187.157 33.1857 186.847 32.7155C186.537 32.2118 186.382 31.6746 186.382 31.1037C186.382 30.4992 186.554 29.9284 186.898 29.3911C187.243 28.8202 187.811 28.4005 188.603 28.1318C190.222 27.4938 191.737 27.0573 193.149 26.8222C194.596 26.5871 195.922 26.4696 197.127 26.4696C199.779 26.4696 201.949 26.8558 203.637 27.6281C205.359 28.3669 206.65 29.5254 207.511 31.1037C208.372 32.6484 208.803 34.6464 208.803 37.0978V48.28C208.803 49.5225 208.493 50.4795 207.873 51.1511C207.253 51.8227 206.357 52.1585 205.186 52.1585C204.015 52.1585 203.103 51.8227 202.448 51.1511C201.828 50.4795 201.518 49.5225 201.518 48.28V46.4163L201.88 46.7185C201.673 47.8602 201.226 48.8508 200.537 49.6904C199.883 50.4963 199.039 51.1343 198.005 51.6044C196.972 52.041 195.784 52.2592 194.441 52.2592Z"/>
            <path d="M223.766 52.2592C220.701 52.2592 218.41 51.4365 216.895 49.7911C215.38 48.1121 214.622 45.6271 214.622 42.3363V19.6192C214.622 18.3432 214.949 17.3862 215.603 16.7481C216.292 16.0765 217.274 15.7407 218.548 15.7407C219.788 15.7407 220.735 16.0765 221.389 16.7481C222.078 17.3862 222.423 18.3432 222.423 19.6192V42.0341C222.423 43.4108 222.715 44.435 223.301 45.1066C223.921 45.7447 224.73 46.0637 225.729 46.0637C226.005 46.0637 226.263 46.0469 226.504 46.0133C226.745 45.9797 227.003 45.9629 227.279 45.9629C227.83 45.8958 228.209 46.0637 228.415 46.4667C228.656 46.836 228.777 47.5916 228.777 48.7333C228.777 49.7407 228.57 50.5131 228.157 51.0504C227.744 51.5541 227.107 51.8899 226.246 52.0578C225.901 52.0913 225.505 52.1249 225.057 52.1585C224.61 52.2257 224.179 52.2592 223.766 52.2592Z"/>
            <path d="M290.121 15.326L295.697 15.1498V34.8809H288.971L290.121 15.326Z" fill="transparent"/>
            <ellipse cx="272.952" cy="49.3269" rx="6.63755" ry="8.4562" fill="transparent"/>
            <path d="M260.774 21.7562C260.774 26.4264 257.537 25.6319 253.871 25.6319C250.205 25.6319 247.765 24.3987 247.765 22.7251C247.765 18.0549 250.471 17.44 254.137 17.44C257.803 17.44 260.774 17.0859 260.774 21.7562Z" fill="transparent"/>
            <path d="M244.467 6.58261C244.14 6.7647 243.709 7.15489 243.487 7.45403L243.095 8.01331V14.9847V21.9691L243.434 22.8406C244.663 25.9751 247.303 28.0561 250.478 28.3813L251.327 28.4723L251.393 44.21L251.458 59.9477L251.746 60.416C251.915 60.6761 252.294 61.0533 252.595 61.2614C253.078 61.5995 253.248 61.6385 254.137 61.6385C255.012 61.6385 255.195 61.5995 255.653 61.2874C255.927 61.0923 256.306 60.7151 256.489 60.442L256.816 59.9607L256.881 44.223L256.946 28.4723L257.796 28.3813C261.05 28.0561 263.898 25.728 264.892 22.6195C265.179 21.722 265.179 21.5789 265.179 14.8677V8.02631L264.826 7.51907C264.251 6.71267 263.65 6.3745 262.644 6.32248C261.572 6.27045 260.801 6.62163 260.213 7.45403L259.821 8.01331L259.756 11.2779L259.691 14.5555H258.319H256.946L256.881 11.2909C256.816 8.07834 256.816 8.02631 256.489 7.55808C255.94 6.73868 255.274 6.3745 254.281 6.32248C253.209 6.27045 252.438 6.62163 251.85 7.45403L251.458 8.01331L251.393 11.2779L251.327 14.5555H249.955H248.583L248.518 11.2909L248.452 8.02631L248.1 7.51907C247.525 6.71267 246.924 6.3745 245.917 6.32248C245.199 6.28346 244.95 6.33549 244.467 6.58261ZM259.625 20.4734C259.625 21.2668 258.985 22.1382 258.057 22.6325C257.639 22.8536 257.273 22.8796 254.137 22.8796C250.844 22.8796 250.648 22.8666 250.151 22.5934C249.263 22.1252 248.648 21.2538 248.648 20.4734V20.0832H254.137H259.625V20.4734Z"/>
            <path d="M271.556 6.58261C271.23 6.7647 270.798 7.15489 270.576 7.45403L270.184 8.01331L270.119 22.5154L270.054 37.0175L268.956 37.3427C266.212 38.123 264.16 39.7618 263.01 42.064C262.004 44.106 261.834 44.9514 261.834 47.9168C261.834 50.0889 261.873 50.6092 262.108 51.5586C263.389 56.5921 266.225 60.0258 270.184 61.3394C270.955 61.5865 271.373 61.6385 272.863 61.6385C274.353 61.6385 274.771 61.5865 275.542 61.3394C279.501 60.0258 282.337 56.5921 283.618 51.5586C283.853 50.6092 283.892 50.0889 283.892 47.9168C283.892 45.7318 283.853 45.2375 283.605 44.3401C282.625 40.7373 280.286 38.3442 276.77 37.3427L275.673 37.0175L275.607 22.5284L275.542 8.02631L275.189 7.51907C274.614 6.71267 274.013 6.37451 273.007 6.32248C272.288 6.28346 272.04 6.33549 271.556 6.58261ZM275.437 42.7143C276.901 43.2085 277.855 44.3401 278.221 45.9789C278.469 47.1104 278.325 49.9458 277.959 51.1034C277.28 53.2364 275.986 55.0313 274.588 55.7337C273.712 56.1759 272.027 56.1889 271.164 55.7467C269.675 54.9793 268.472 53.3145 267.741 51.0384C267.479 50.1799 267.44 49.8028 267.44 47.9168C267.44 45.8228 267.453 45.7578 267.819 44.9514C268.472 43.5467 269.805 42.6363 271.556 42.4021C271.556 42.4021 274.627 42.4542 275.437 42.7143Z"/>
            <path d="M296.751 6.53058C295.079 7.40201 292.491 9.76917 290.897 11.8632C286.925 17.1308 284.612 24.5704 284.076 33.87C283.88 37.2776 283.971 37.7849 284.873 38.6823C285.749 39.5537 285.984 39.5928 290.949 39.5928H295.21V49.6467V59.7136L295.51 60.2599C295.667 60.572 296.059 61.0012 296.373 61.2354C296.882 61.5995 297.013 61.6385 297.941 61.6385C298.829 61.6385 299.012 61.5995 299.47 61.2874C299.744 61.0923 300.123 60.7151 300.306 60.442L300.633 59.9607V34V8.02631L300.28 7.51907C299.705 6.69967 299.104 6.3745 298.097 6.32248C297.444 6.29647 297.117 6.33549 296.751 6.53058ZM295.21 24.7655V34H292.439H289.682L289.773 32.6604C290.009 29.0836 290.884 24.7655 292.021 21.5789C292.779 19.4719 294.817 15.531 295.144 15.531C295.183 15.531 295.21 19.68 295.21 24.7655Z"/>
        </symbol>
</svg>






